<?xml version="1.0" standalone="no"?>
<!DOCTYPE svg PUBLIC "-//W3C//DTD SVG 20010904//EN"
 "http://www.w3.org/TR/2001/REC-SVG-20010904/DTD/svg10.dtd">
<svg version="1.0" xmlns="http://www.w3.org/2000/svg"
 width="700.000000pt" height="700.000000pt" viewBox="0 0 700.000000 700.000000"
 preserveAspectRatio="xMidYMid meet">
<metadata>
Created by potrace 1.11, written by Peter Selinger 2001-2013
</metadata>
<g transform="translate(0.000000,700.000000) scale(0.100000,-0.100000)"
fill="#000000" stroke="none">
<path d="M3393 6510 c-64 -13 -167 -47 -211 -69 -21 -11 -194 -117 -383 -237
-189 -119 -356 -224 -371 -233 -15 -9 -166 -103 -335 -210 -170 -107 -436
-275 -593 -374 -157 -99 -303 -192 -325 -208 -88 -61 -182 -168 -237 -269 -27
-49 -72 -174 -84 -230 -10 -51 -13 -2593 -2 -2648 5 -26 11 -60 14 -77 33
-191 160 -392 309 -489 28 -18 223 -108 435 -200 494 -216 1055 -462 1280
-563 30 -14 69 -31 85 -38 17 -7 57 -25 90 -40 168 -77 299 -107 465 -105 83
0 96 1 182 15 107 17 217 61 1133 452 553 236 886 386 970 435 177 105 312
303 360 527 21 100 22 2571 1 2682 -25 128 -71 238 -152 365 -40 63 -192 219
-227 234 -12 5 -84 49 -159 97 -234 150 -1119 711 -1204 763 -13 8 -135 85
-271 171 -261 164 -326 199 -433 231 -72 22 -265 32 -337 18z m232 -330 c92
-24 92 -25 715 -418 135 -86 270 -171 300 -191 30 -20 62 -39 70 -43 8 -4 74
-46 145 -93 72 -46 146 -94 165 -105 43 -25 48 -29 262 -165 95 -60 176 -112
181 -114 20 -8 184 -121 208 -143 34 -31 102 -124 127 -173 23 -47 49 -126 58
-175 8 -48 8 -2474 -1 -2530 -22 -146 -126 -290 -250 -349 -78 -37 -217 -101
-220 -101 -2 0 -38 -16 -82 -36 -127 -58 -142 -65 -538 -234 -209 -89 -393
-168 -410 -175 -125 -56 -608 -254 -640 -263 -102 -28 -220 -33 -315 -15 -82
17 -44 1 -590 241 -450 197 -495 217 -608 268 -29 13 -54 24 -57 24 -2 0 -36
15 -77 33 -40 19 -217 96 -393 173 -361 157 -385 173 -443 296 -63 131 -61 82
-62 1439 0 797 3 1254 10 1290 15 83 66 177 129 239 35 35 127 100 241 171
102 64 370 232 595 374 402 253 598 377 901 566 163 102 160 100 225 143 99
66 246 93 354 66z"/>
<path d="M2688 4466 c-25 -7 -57 -20 -70 -28 -23 -16 -388 -325 -398 -337 -3
-4 -25 -22 -49 -41 -56 -44 -86 -107 -77 -164 4 -22 22 -68 40 -101 19 -33 55
-100 81 -150 63 -118 68 -125 82 -125 17 0 17 71 -1 138 -8 29 -14 53 -14 55
0 1 -6 22 -12 47 -32 112 -15 156 87 238 70 56 201 143 283 187 l55 30 825 0
825 0 53 -28 c125 -66 337 -218 372 -267 28 -39 28 -78 1 -172 -38 -134 -49
-212 -30 -224 15 -9 28 8 90 125 25 47 64 122 88 165 45 85 48 115 16 175 -14
29 -42 54 -219 205 -27 22 -54 46 -60 51 -89 81 -229 192 -261 206 -22 10 -58
19 -80 20 -35 3 -205 -9 -245 -16 -8 -2 -58 -6 -110 -9 -52 -4 -108 -9 -125
-11 -87 -10 -221 -19 -310 -19 -90 -1 -283 11 -328 19 -9 2 -56 7 -105 10 -48
4 -96 8 -108 10 -11 2 -70 6 -130 10 -60 4 -111 8 -114 10 -3 1 -26 -3 -52 -9z"/>
<path d="M2670 3964 c-76 -28 -117 -63 -125 -109 -7 -38 12 -74 54 -102 67
-45 150 -18 259 84 94 88 65 130 -92 131 -44 1 -88 -2 -96 -4z"/>
<path d="M4103 3959 c-72 -21 -57 -74 44 -154 73 -58 118 -77 165 -72 51 6 87
31 105 75 14 34 14 40 -3 72 -13 24 -36 44 -73 63 -46 23 -66 27 -130 26 -42
0 -91 -5 -108 -10z"/>
<path d="M2945 3680 c-17 -3 -39 -11 -49 -17 -42 -23 -395 -330 -412 -358 -26
-43 -25 -135 2 -172 23 -31 205 -181 297 -245 55 -38 58 -41 39 -54 -29 -20
-47 -65 -81 -199 -16 -66 -55 -196 -86 -290 -30 -93 -55 -180 -55 -192 0 -26
-15 -21 518 -178 l394 -115 321 95 c177 53 333 100 347 105 14 4 71 22 128 40
117 35 113 30 87 147 -83 364 -129 527 -162 571 -14 18 -23 34 -22 36 2 1 79
60 171 130 187 142 206 168 193 256 -9 60 -26 89 -72 126 -21 18 -49 43 -63
56 -22 20 -113 99 -175 150 -11 9 -40 33 -65 53 -80 66 -147 77 -260 41 -41
-13 -149 -48 -240 -77 -91 -29 -173 -52 -183 -51 -10 0 -59 14 -110 31 -376
122 -396 127 -462 111z m91 -276 c27 -8 58 -19 69 -24 74 -32 349 -113 390
-115 63 -4 108 8 357 91 l198 67 37 -29 c59 -44 163 -152 163 -168 0 -17 -125
-114 -158 -122 -19 -5 -34 3 -76 45 -65 64 -121 82 -246 77 -133 -4 -210 -52
-245 -152 l-12 -35 -27 55 c-49 99 -130 138 -275 132 -110 -5 -145 -18 -205
-78 -26 -26 -56 -48 -65 -48 -29 0 -171 106 -171 127 0 21 182 193 205 193 6
0 34 -7 61 -16z"/>
<path d="M2614 1851 c6 -10 295 -208 349 -239 12 -7 76 -48 142 -92 66 -43
184 -120 263 -170 l142 -92 123 77 c223 141 251 159 482 311 127 83 248 166
270 184 l40 33 -30 -5 c-61 -10 -195 -51 -530 -163 -188 -63 -348 -115 -355
-115 -7 0 -170 52 -364 116 -193 63 -359 117 -370 119 -16 4 -93 25 -150 42
-12 3 -16 1 -12 -6z"/>
</g>
</svg>
